/* XPM */
static char *result[] = {
/* columns rows colors chars-per-pixel */
"64 64 213 2 ",
"   c #191919",
".  c #191A19",
"X  c #191C18",
"o  c #191D18",
"O  c #1A1D19",
"+  c #191E18",
"@  c #191F18",
"#  c #183E09",
"$  c #1A3E0B",
"%  c #1A390E",
"&  c #1A380F",
"*  c #1A3A0E",
"=  c #1A3D0C",
"-  c #1B3D0D",
";  c #1A3E0C",
":  c #1C3D0F",
">  c #192217",
",  c #192417",
"<  c #192616",
"1  c #1C2519",
"2  c #1E2D1A",
"3  c #1A3112",
"4  c #1E3717",
"5  c #1C3D10",
"6  c #1E3F12",
"7  c #1E3916",
"8  c #1E3C14",
"9  c #1F3E14",
"0  c #1E3E15",
"q  c #1F3718",
"w  c #1F3818",
"e  c #20341B",
"r  c #20361A",
"t  c #21321D",
"y  c #203819",
"u  c #213B19",
"i  c #233A1C",
"p  c #233A1D",
"a  c #243C1D",
"s  c #253E1E",
"d  c #262725",
"f  c gray15",
"g  c #272727",
"h  c #242C22",
"j  c #242E22",
"k  c #252E23",
"l  c #262A25",
"z  c #262B25",
"x  c #262826",
"c  c #272927",
"v  c #272A26",
"b  c #272B26",
"n  c #272A27",
"m  c #252C24",
"M  c #262D25",
"N  c #272F26",
"B  c #282F27",
"V  c #282828",
"C  c #233020",
"Z  c #233120",
"A  c #233021",
"S  c #243021",
"D  c #243121",
"F  c #243022",
"G  c #283724",
"H  c #283725",
"J  c #283526",
"K  c #293527",
"L  c #293726",
"P  c #2A3627",
"I  c #253920",
"U  c #253921",
"Y  c #263921",
"T  c #273822",
"R  c #273823",
"E  c #273D20",
"W  c #293A25",
"Q  c #2A3827",
"!  c #2A3B26",
"~  c #2B3B27",
"^  c #293D25",
"/  c #293028",
"(  c #2B3529",
")  c #2B3628",
"_  c #2C352B",
"`  c #2E332D",
"'  c #2E332E",
"]  c #2F332E",
"[  c #2F322F",
"{  c #2D342C",
"}  c #2D3B29",
"|  c #30322F",
" . c #30392E",
".. c #313C2F",
"X. c #313131",
"o. c #303230",
"O. c #313331",
"+. c #323730",
"@. c #323C30",
"#. c #323E30",
"$. c #1B430B",
"%. c #1A4509",
"&. c #1B410C",
"*. c #1C400C",
"=. c #1C410C",
"-. c #1C420C",
";. c #1C430D",
":. c #1D430D",
">. c #1D400E",
",. c #1D440D",
"<. c #1E440D",
"1. c #1D440E",
"2. c #1D450E",
"3. c #1E450E",
"4. c #1E460E",
"5. c #1F470E",
"6. c #1F460F",
"7. c #1F470F",
"8. c #1A5502",
"9. c #1B5603",
"0. c #1A5104",
"q. c #1E5906",
"w. c #1F5A07",
"e. c #1E4310",
"r. c #1E4014",
"t. c #20480F",
"y. c #20490F",
"u. c #245E0C",
"i. c #204711",
"p. c #224614",
"a. c #224516",
"s. c #214A10",
"d. c #224B10",
"f. c #214C11",
"g. c #224C10",
"h. c #234E11",
"j. c #234F11",
"k. c #244F12",
"l. c #24441B",
"z. c #25441B",
"x. c #27471E",
"c. c #2A4C1F",
"v. c #245012",
"b. c #245112",
"n. c #255212",
"m. c #255312",
"M. c #255213",
"N. c #265213",
"B. c #265313",
"V. c #265413",
"C. c #275514",
"Z. c #285715",
"A. c #295A16",
"S. c #2A5A16",
"D. c #2A5B16",
"F. c #2B5C17",
"G. c #2B5D17",
"H. c #2C5E17",
"J. c #285318",
"K. c #2A5619",
"L. c #29521C",
"P. c #2A531C",
"I. c #2B501F",
"U. c #2C551E",
"Y. c #2C5C1A",
"T. c #26610E",
"R. c #2B6714",
"E. c #2C6815",
"W. c #2D6915",
"Q. c #2E6A16",
"!. c #2D6018",
"~. c #2D6118",
"^. c #2E6219",
"/. c #2E6319",
"(. c #2F6419",
"). c #2F641A",
"_. c #2F651A",
"`. c #30651A",
"'. c #30661A",
"]. c #31681B",
"[. c #306D18",
"{. c #336B1C",
"}. c #346D1D",
"|. c #37721E",
" X c #274520",
".X c #294622",
"XX c #2B4325",
"oX c #2B4026",
"OX c #2C4326",
"+X c #2C4426",
"@X c #2B4B21",
"#X c #2D4825",
"$X c #2D4826",
"%X c #2E4927",
"&X c #2E4B26",
"*X c #2E4E24",
"=X c #2F4E26",
"-X c #33412F",
";X c #33422F",
":X c #33452F",
">X c #33482E",
",X c #2F5025",
"<X c #315625",
"1X c #325427",
"2X c #315924",
"3X c #335A27",
"4X c #335F24",
"5X c #35512D",
"6X c #336222",
"7X c #336024",
"8X c #37622A",
"9X c #387520",
"0X c #3B7A21",
/* pixels */
"f f f X.X.X.X.X.X.f f f f f f f f f f N XX7XV.t.6.1.;.B.k.`.OX  f f f X.X.X.X.X.X.$ $ $ $ $ $ G./.4.Z./.k.k.$ :.k.(.9X|.]./.B.S.",
"f f X.X.X.X.X.X.X.X.X.X.X.X.X.f f f f X.X.X.X.X.W a I X.X.X.g   f f X.X.X.X.X.X.X.X.X.{ R U G h h e h H L o.$ $ $ s.H.$ $ $ $ $ ",
"f X.X.X.X.V V V V V V V X.X.X.X.X.X.X.X.X.X.X.X.X.X.X.X.V g g   f X.X.X.X.V V V V V V V X.] i _ L ' o.[ X.X.X._ X.o.P { M A w $ ",
"f X.X.X.V V V V V V V V V V V V V V V V X.X.X.X.X.X.V V g       f X.X.X.V V V V V V V V V V V V b V V V X.X.X.X.X.X.V V g , * B.",
"f X.X.X.V V V V V V V V V V V V V V V V V V V V V V V V g g     f X.X.X.V V V V V V V V V V V V V V V V V V V V V V V V g j 3 D.",
"f X.X.X.V V V V V V V V V V V V V V V V V V V V V V V V V g     f X.X.X.V V V V V V V V V V V V V V V V V V V V V V V V V m > ).",
"X.X.X.V V V V V V V V V V V V V V V V V V V V V V V V V V g g   X.X.X.V V V V V V V V V V V V V V V V V V V V V V V V V V z z C.",
"X.X.V V V V V V V V V V V V V V V V V V V V V V V V V V V V g   X.X.V V V V V V V V V V V V V V V V V V V V V V V V V V V V A F.",
"X.X.V V V V V V V V V V V V V V V V V V V V V V V V V V V V g   X.X.V V V V V V V V V V V V V V V V V V V V V V V V V V V V Z $ ",
"f X.X.V V V V V V V V V V V V V V V V V V V V V V V V V V g     f X.X.V V V V V V V V V V V V V V V V V V V V V V V V V V g   $ ",
"f X.X.V V V V V v V V V V V V V V V V V V V V V V V V V V g     f X.X.V V V V V V V V V V V V V V V V V V V V V V V V V V g   $ ",
"f X.X.V V V V v $ b V V V V V V V V V V V V V V V V V g g g     f X.X.V V V V V V V V V V V V V V V V V V V V V V V V g g g   $ ",
"X.X.V V V V V k $ S V V V V V V V V V V g g V V V V g     g     X.X.V V V V V V V V V V V V V V V V V V g g V V V V g     g     ",
"X.X.g g g n D 9 h.K.s C g g g g $XV g g g g g g g g             X.X.g g g V V V V V V g g g g g g V g g g g g g g g             ",
"g g     - 7 _.5.s.-.V.B.$ $ 7.G.Z.=Xg         g g               g g     g g g g g g g g           g g         g g               ",
"        , o                     O 2                                         X X   @                               + .           ",
"f f f f f f f f X.X.f X.X.g g   u.u.m.&.: p u X.X.8.8.8.8.8.8.[.W.Q.T.R.w.8.0.%.5 ; t X.{ q $   ).6X$ $ P.$ $ $ X.e 4 = }.!.0Xb.",
"f f f X.X.X.X.X.X.X.X.X.X.X.g   E.$.X.X.o.| ` X.X.X.X.X.X.X.X.8.9.q.8.X.X.X.X.' o.` X.X.o.Y $   g.U.a.r.E X.X.X.X.[ ` Y X.X.o.$ ",
"X.X.X.X.X.X.X.X.X.X.X.X.V g g   w.X.X.X.X.V V V V V V V X.X.X.X.X.X.X.X.X.X.X.X.X.X.X.X.V g g   $ 1XX.X.X.V V V V V V V X.X.o.T ",
"V V V V X.X.X.X.X.X.V V g       8.X.X.X.V V V V V V V V V V V V V V V V X.X.X.X.X.X.V V g       $ { X.X.V V V V V V V V V V V V ",
"V V V V V V V V V V V V g g     8.X.X.X.V V V V V V V V V V V V V V V V V V V V V V V V g g     $ X.X.X.V V V V V V V V V V V V ",
"V V V V V V V V V V V V V g     m.X.X.X.V V V V V V V V V V V V V V V V V V V V V V V V V g     $ X.X.X.V V V V V V V V V V V V ",
"V V V V V V V V V V V V V g g   m.X.X.V V V V V V V V V V V V V V V V V V V V V V V V V V g g   $ X.X.V V V V V V V V V V V V V ",
"V V V V V V V V V V V V V V g   # X.V V V V V V V V V V V V V V V V V V V V V V V V V V V V g   7.X.V V V V V V V V V V V V V V ",
"V V V V V V V V V V V V V V g   X.X.V V V V V V V V V V V V V V V V V V V V V V V V V V V V g   G.X.V V V V V V V V V V V V V V ",
"V V V V V V V V V V V V V g     f X.X.V V V V V V V V V V V V V V V V V V V V V V V V V V g     $ X.X.V V V V V V V V V V V V V ",
"V V V V V V V V V V V V V g     f X.X.V V V V V V V V V V V V V V V V V V V V V V V V V V g     $ X.X.V V V V V V V V V V V V V ",
"V V V V V V V V V V V g g g     f X.X.V V V V V V V V V V V V V V V V V V V V V V V V g g g     7.X.X.V V V V V V V V V V V V V ",
"V V V V g g V V V V g     g     X.X.V V V V V V V V V V V V V V V V V V g g V V V V g     g     ~.X.V V V V V V V V V V V V V V ",
"g V g g g g g g g g             X.X.g g g V V V V V V g g g g g g V g g g g g g g g             G.X.g g g V V V V V V g g g g g ",
"  g g         g g               g g     g g g g g g g g           g g         g g               g g     g g g g g g g g         ",
"                                                                                                                                ",
"X.f f f f f #X{.Z.k.k.$ $ Z._.G.k.k.$ $ y.y.B.  $ $ ^.+.X.X.X.X.X.f f f f f f f f f f f f f f f X.X.f X.X.g g   J.I.XX>XX.X.X.X.",
"X.X.X.X.X.X.X.x J N N X.X.@.O.#.+.+.X.X.-Xy.{.r ,X2X>X+.X.X.X.X.X.X.X.X.X.X.X.f f f f X.X.X.X.X.X.X.X.X.X.X.g   ; x.+.+.X.X.X.X.",
"V V V V X.X.X.X.X.X.X.X.X.X.X.X.X.X.X.X.V $ k.1 $ +.X.X.X.V V V V V V V X.X.X.X.X.X.X.X.X.X.X.X.X.X.X.X.V g g   *X..X.X.X.V V V ",
"V V V V V V V V V V V V X.X.X.X.X.X.V V g $ Z.2 $ X.X.X.V V V V V V V V V V V V V V V V X.X.X.X.X.X.V V g       J O.X.X.V V V V ",
"V V V V V V V V V V V V V V V V V V V V g B.4.O f X.X.X.V V V V V V V V V V V V V V V V V V V V V V V V g g     f X.X.X.V V V V ",
"V V V V V V V V V V V V V V V V V V V V V '.G.  f X.X.X.V V V V V V V V V V V V V V V V V V V V V V V V V g     f X.X.X.V V V V ",
"V V V V V V V V V V V V V V V V V V V V V +Xv.  X.X.X.V V V V V V V V V V V V V V V V V V V V V V V V V V g g   X.X.X.V V V V V ",
"V V V V V V V V V V V V V V V V V V V V V ~ y.  X.X.V V V V V V V V V V V V V V V V V V V V V V V V V V V V g   >X+.V V V V V V ",
"V V V V V V V V V V V V V V V V V V V V V / k.  X.X.V V V V V V V V V V V V V V V V V V V V V V V V V V V V g   5X:XV V V V V V ",
"V V V V V V V V V V V V V V V V V V V V V B k.  f X.X.V V V V V V V V V V V V V V V V V V V V V V V V V V g     y.-XX.V V V V V ",
"V V V V V V V V V V V V V V V V V V V V V g B.  f X.X.V V V V V V V V V V V V V V V V V V V V V V V V V V g     $ X.X.V V V V V ",
"V V V V V V V V V V V V V V V V V V V g g g z.  f X.X.V V V V V V V V V V V V V V V V V V V V V V V V g g g     $ X.X.V V V V V ",
"V V V V V V V V V V V V g g V V V V g     g     X.X.V V V V V V V V V V V V V V V V V V g g V V V V g     g     $ X.V V V V V V ",
"V V V g g g g g g V g g g g g g g g             X.X.g g g V V V V V V g g g g g g V g g g g g g g g             :.N.k.g g V %XQ ",
"g g g g           g g         g g               g g     g g g g g g g g           g g         g g               k.M.:.B.B.$ B.<X",
"                                                                                                                                ",
"X.X.f X.X.g g   6 - Y.3X#.X.X.X.X.f f f f f XXXX@XB.Z.j.y.$ k.k.7.G.:.:.$ A.$   f f f X.X.X.X.X.X.f f f f f f f f f f f f f f f ",
"X.X.X.X.X.X.g   b.y #.X.X.X.X.X.X.X.X.X.X.X.+.N d d J ;X+X' }  .) ( &Xc.Y p.$   f f X.X.X.X.X.X.X.X.X.X.X.X.X.f f f f X.X.X.X.X.",
"X.X.X.X.V g g   :.:.$ X.X.V V V V V V V X.X.X.X.X.X.X.X.X.X.X.X.X.X.X.o.F >.$   f X.X.X.X.V V V V V V V X.X.X.X.X.X.X.X.X.X.X.X.",
"X.X.V V g       k.>XX.X.V V V V V V V V V V V V V V V V X.X.X.X.X.X.V V g i.$   f X.X.X.V V V V V V V V V V V V V V V V X.X.X.X.",
"V V V V g g     k.+.X.X.V V V V V V V V V V V V V V V V V V V V V V V V g l.$   f X.X.X.V V V V V V V V V V V V V V V V V V V V ",
"V V V V V g     k.+.X.X.V V V V V V V V V V V V V V V V V V V V V V V V V B k.  f X.X.X.V V V V V V V V V V V V V V V V V V V V ",
"V V V V V g g   Z.@.X.V V V V V V V V V V V V V V V V V V V V V V V V V V g $   X.X.X.V V V V V V V V V V V V V V V V V V V V V ",
"V V V V V V g   !.O.V V V V V V V V V V V V V V V V V V V V V V V V V V V oXn.  X.X.V V V V V V V V V V V V V V V V V V V V V V ",
"V V V V V V g   8XX.V V V V V V V V V V V V V V V V V V V V V V V V V V V oXn.  X.X.V V V V V V V V V V V V V V V V V V V V V V ",
"V V V V V g     f X.X.V V V V V V V V V V V V V V V V V V V V V V V V V V g $   f X.X.V V V V V V V V V V V V V V V V V V V V V ",
"V V V V V g     f X.X.V V V V V V V V V V V V V V V V V V V V V V V V V V g $   f X.X.V V V V V V V V V V V V V V V V V V V V V ",
"V V V g g g     f X.X.V V V V V V V V V V V V V V V V V V V V V V V V g g C :.  f X.X.V V V V V V V V V V V V V V V V V V V V V ",
"V V g     g     X.X.V V V V V V V V V V V V V V V V V V g g V V V V g     OX:.  X.X.V V V V V V V V V V V V V $ V V V V g g V V ",
"g g             X.X.g g g V V V V V / OX! ! g g ! ~ g c K g c K B ^ L.0 8 e.=.  X.X.g g g V V V V V V g l g $ f. X.Xl g g g g g ",
"g               g g     g g g g g g 4Xk.y.y.$ /.y.y.$ 4.Z.$ 4.Z.k.S.V.3.*.$ $   g g     g g g g g g g g d.B.k.2.<.,.$ % & <   g ",
"                                                                                                                                "
};
